<svg width="640" height="640" viewBox="0 0 640 640" fill="none" xmlns="http://www.w3.org/2000/svg">
  <rect width="640" height="640" rx="80" fill="url(#paint0_linear_10_3)"/>
  <circle cx="320" cy="192" r="112" fill="#0F172A" fill-opacity="0.9"/>
  <path d="M176 486C176 400.948 244.948 332 330 332H332C417.052 332 486 400.948 486 486V500C486 522.091 468.091 540 446 540H216C193.909 540 176 522.091 176 500V486Z" fill="#0F172A" fill-opacity="0.9"/>
  <circle cx="470" cy="152" r="36" fill="#38BDF8" fill-opacity="0.5"/>
  <circle cx="166" cy="468" r="28" fill="#C4B5FD" fill-opacity="0.55"/>
  <circle cx="470" cy="470" r="58" stroke="white" stroke-opacity="0.28" stroke-width="10"/>
  <path d="M124 154C124 154 187.084 114 243 114C298.916 114 356 154 356 154" stroke="white" stroke-opacity="0.2" stroke-width="16" stroke-linecap="round"/>
  <defs>
    <linearGradient id="paint0_linear_10_3" x1="74" y1="44" x2="554" y2="610" gradientUnits="userSpaceOnUse">
      <stop stop-color="#E0F2FE"/>
      <stop offset="0.5" stop-color="#DBEAFE"/>
      <stop offset="1" stop-color="#EDE9FE"/>
    </linearGradient>
  </defs>
</svg>
